<svg xmlns="http://www.w3.org/2000/svg" xmlns:xlink="http://www.w3.org/1999/xlink" viewBox="0 0 259.139 418.721"><defs><style>.a{fill:url(#a);}</style><linearGradient id="a" x1="0.075" x2="0.5" y2="1" gradientUnits="objectBoundingBox"><stop offset="0" stop-color="#2371d6"/><stop offset="1" stop-color="#be5858"/></linearGradient></defs><path class="a" d="M113.253,110.664h60.626V87.913H113.253v22.751Zm60.182,7.57H113.253S14.235,215.83,14.235,311.52c0,101.394,103.744,109.448,103.744,109.448s30.946,5.129,50.2,0c0,0,105.2-12.329,105.2-108.955.016-96.659-99.939-193.779-99.939-193.779Zm4.455,205.434a35.459,35.459,0,0,1-9.913,12.362,43.153,43.153,0,0,1-14.622,7.455c-.707.214-1.479.3-2.2.477v16.825H136V345.934c-.189.016-.37.049-.551.049a64.66,64.66,0,0,1-11.992-1.036,72.676,72.676,0,0,1-9.773-2.523,42.567,42.567,0,0,1-7.077-3.1,19.959,19.959,0,0,1-4.1-2.869,7.184,7.184,0,0,1-1.792-3.608,34.385,34.385,0,0,1-.526-6.8c0-1.989.058-3.649.2-5.006a13.874,13.874,0,0,1,.633-3.28,3.678,3.678,0,0,1,1.142-1.792,2.882,2.882,0,0,1,1.677-.526,7.922,7.922,0,0,1,3.806,1.586,65.552,65.552,0,0,0,6.3,3.518,57.763,57.763,0,0,0,9.2,3.526,44.117,44.117,0,0,0,12.378,1.586,28.455,28.455,0,0,0,8.277-1.11,18.482,18.482,0,0,0,6.214-3.132,13.123,13.123,0,0,0,3.9-5.006,15.856,15.856,0,0,0,1.356-6.674,11.826,11.826,0,0,0-2.31-7.274,23.362,23.362,0,0,0-6.025-5.392,63.1,63.1,0,0,0-8.417-4.422q-4.722-2.084-9.723-4.373a86.028,86.028,0,0,1-9.723-5.252,39.106,39.106,0,0,1-8.433-7.011,33.681,33.681,0,0,1-6.025-9.682,34.822,34.822,0,0,1-2.293-13.373,35.455,35.455,0,0,1,3.312-15.732,32.5,32.5,0,0,1,8.951-11.252,38.367,38.367,0,0,1,13.282-6.691,54.9,54.9,0,0,1,8.1-1.669V201.669H151.12v15.937c.616.074,1.216.049,1.816.14a60.488,60.488,0,0,1,8.277,1.816,46.15,46.15,0,0,1,6.83,2.573,15.373,15.373,0,0,1,3.945,2.392,7,7,0,0,1,1.323,1.619,9.67,9.67,0,0,1,.567,1.792,16.528,16.528,0,0,1,.321,2.8c.066,1.11.09,2.515.09,4.175,0,1.866-.066,3.452-.156,4.743a16.584,16.584,0,0,1-.477,3.173,3.7,3.7,0,0,1-.953,1.833,2.317,2.317,0,0,1-1.677.567,8.056,8.056,0,0,1-3.378-1.323c-1.545-.912-3.436-1.866-5.655-2.91a57.634,57.634,0,0,0-7.8-2.885,34.784,34.784,0,0,0-9.723-1.282,22.931,22.931,0,0,0-7.225,1,15.153,15.153,0,0,0-5.162,2.77,10.99,10.99,0,0,0-3.066,4.266,13.846,13.846,0,0,0-1,5.269,11.744,11.744,0,0,0,2.252,7.184,21.367,21.367,0,0,0,6.074,5.392,62.063,62.063,0,0,0,8.63,4.422q4.808,2.084,9.814,4.373a99.078,99.078,0,0,1,9.814,5.252,39.027,39.027,0,0,1,8.581,7.028,33.153,33.153,0,0,1,6.058,9.617,33.641,33.641,0,0,1,2.31,13.052,38.74,38.74,0,0,1-3.682,17.187ZM172.958,80.335l30.79-75.807s-19.422,16.118-30.79,16.118S143.566,5,143.566,5s-19.414,15.641-30.79,15.641c-11.359,0-29.853-15.165-29.853-15.165L114.19,80.335h58.76Z" transform="translate(-14.235 -4.527)"/></svg>