<svg xmlns="http://www.w3.org/2000/svg" viewBox="0 0 48.482 34.367"><defs><style>.a{fill:#686565;}</style></defs><path class="a" d="M35.437,20.335c0-7.282-7.934-13.186-17.718-13.186S0,13.053,0,20.335c0,4.377,2.865,8.254,7.276,10.653-.013.038-3.514,6.409-3.514,6.409s10.69-4.077,10.721-4.095a23.619,23.619,0,0,0,3.236.219c9.784,0,17.718-5.9,17.718-13.185Zm13.046,4.12c0-7.282-7.469-13.133-15.554-13.185,11.59,11.545-2.06,23.846-13.185,23.846,0,0,1.236,2.524,11.021,2.524A23.875,23.875,0,0,0,34,37.421c.029.02,10.721,4.095,10.721,4.095s-3.5-6.369-3.513-6.407c4.409-2.4,7.274-6.277,7.274-10.653Z" transform="translate(-0.001 -7.149)"/></svg>