<svg xmlns="http://www.w3.org/2000/svg" viewBox="0 0 122.235 122.235"><defs><style>.a{fill:#ffc107;}</style></defs><path class="a" d="M68.618,129.734a61.118,61.118,0,1,1,61.118-61.118A61.118,61.118,0,0,1,68.618,129.734ZM68.524,90.62c17.02,0,26.984,9.779,26.984,9.779V95.509s-9.961-9.779-26.984-9.779-26.8,9.779-26.8,9.779V100.4S51.5,90.62,68.524,90.62ZM88.767,36.676l-2.733,4.052,16.214,10.936,2.733-4.052ZM32.252,47.612l2.733,4.052L51.2,40.728l-2.733-4.052ZM46.614,61.284a4.889,4.889,0,1,0-4.889-4.889A4.888,4.888,0,0,0,46.614,61.284Zm44,0a4.889,4.889,0,1,0-4.889-4.889A4.888,4.888,0,0,0,90.618,61.284Z" transform="translate(-7.5 -7.499)"/></svg>