<svg xmlns="http://www.w3.org/2000/svg" width="228.583" height="228.584" viewBox="0 0 228.583 228.584">
  <path id="brankic1979_checkmark" data-name="brankic1979 checkmark" d="M119.917,5.625A114.292,114.292,0,1,0,234.209,119.917,114.291,114.291,0,0,0,119.917,5.625Zm63.811,81.826-83.4,83.387a5.366,5.366,0,0,1-7.568,0l-1.679-1.679-.009.009L45.19,122.96a5.36,5.36,0,0,1,0-7.577l11.375-11.366a5.36,5.36,0,0,1,7.577,0l32.433,32.672L164.766,68.5a5.36,5.36,0,0,1,7.577,0l11.375,11.375a5.352,5.352,0,0,1,.009,7.577Z" transform="translate(-5.625 -5.625)" fill="#19e34f"/>
</svg>
